PathFileType	4	(X/Y/Z)	c:/Users/goper/Files/vsCode/490R/osim_files/A06/A06_Static.trc
DataRate	CameraRate	NumFrames	NumMarkers	Units                	OrigDataRate	OrigDataStartFrame	OrigNumFrames
120.00	120.00	8	36	mm	120.0	658	1315
                Frame#	Time	LPSIS			LASIS			LTH1			LTH2			LTH3			LTH4			LLFE			LMFE			LSH1			LSH2			LSH3			LSH4			LLMAL			LMMAL			LCAL			LMTP5			LTOE			LMTP1			RPSIS			RASIS			RTH1			RTH2			RTH3			RTH4			RLFE			RMFE			RSH1			RSH2			RSH3			RSH4			RLMAL			RMMAL			RCAL			RMTP1			RTOE			RMTP5		
		X1	Y1	Z1	X2	Y2	Z2	X3	Y3	Z3	X4	Y4	Z4	X5	Y5	Z5	X6	Y6	Z6	X7	Y7	Z7	X8	Y8	Z8	X9	Y9	Z9	X10	Y10	Z10	X11	Y11	Z11	X12	Y12	Z12	X13	Y13	Z13	X14	Y14	Z14	X15	Y15	Z15	X16	Y16	Z16	X17	Y17	Z17	X18	Y18	Z18	X19	Y19	Z19	X20	Y20	Z20	X21	Y21	Z21	X22	Y22	Z22	X23	Y23	Z23	X24	Y24	Z24	X25	Y25	Z25	X26	Y26	Z26	X27	Y27	Z27	X28	Y28	Z28	X29	Y29	Z29	X30	Y30	Z30	X31	Y31	Z31	X32	Y32	Z32	X33	Y33	Z33	X34	Y34	Z34	X35	Y35	Z35	X36	Y36	Z36

658	5.47500	-310.16296	984.47815	428.69760	-124.17069	949.19550	348.89801	-220.02116	598.15796	300.66074	-215.44461	555.67877	305.54114	-157.12199	594.85321	316.56992	-164.12753	552.71570	318.80063	-197.06075	480.26385	323.00507	-201.07310	470.31369	430.53391	-262.28299	389.11749	304.51001	-256.91415	343.63544	297.17816	-199.96912	389.24591	311.20493	-202.58337	347.18805	305.96616	-254.18895	92.27898	333.22531	-235.48775	110.87351	416.30948	-315.28903	77.13091	383.41309	-135.10637	42.74291	312.53470	-95.26574	63.42365	367.89261	-118.61903	56.02769	407.18158	-299.87106	996.06622	559.75494	-124.37479	954.19440	612.22626	-251.01671	600.67572	651.00928	-247.61676	556.95587	653.02826	-188.49985	597.42700	642.54034	-194.78337	553.26886	647.70551	-232.60866	439.67664	631.35730	-232.73480	437.76630	542.25104	-264.81818	285.58365	624.43744	-267.44193	238.04716	624.75647	-205.66966	277.80829	612.65240	-216.39636	230.61308	618.87531	-280.89313	102.26735	638.73291	-268.05670	101.38651	555.46478	-338.44873	80.90554	592.54266	-136.72409	54.20249	562.31158	-121.04739	65.44355	602.42029	-147.83888	51.72745	650.04559
659	5.48333	-310.18228	984.45850	428.68814	-124.16576	949.19940	348.90378	-219.97629	598.15186	300.65503	-215.40799	555.66797	305.52515	-157.07602	594.87103	316.54996	-164.07640	552.71234	318.78360	-197.01772	480.24780	322.98871	-200.82532	470.32190	430.46841	-262.20306	389.12439	304.49908	-256.86716	343.64407	297.13962	-199.91940	389.23169	311.18109	-202.54207	347.18057	305.93585	-254.16692	92.28458	333.20825	-235.40630	110.86740	416.29050	-315.27417	77.13158	383.39243	-135.00534	42.73545	312.52252	-95.15393	63.41264	367.89087	-118.51799	56.04568	407.16272	-299.79495	996.00507	559.74353	-124.29567	954.19391	612.19788	-250.89369	600.68164	651.02820	-247.51863	556.93127	653.01807	-188.40385	597.42645	642.51672	-194.68837	553.28467	647.68066	-232.52629	439.65292	631.34503	-232.70619	437.75208	542.23761	-264.68945	285.58035	624.42102	-267.32263	238.03104	624.75311	-205.57593	277.83295	612.62109	-216.32149	230.61852	618.85162	-280.81400	102.24310	638.73456	-268.05920	101.38928	555.48425	-338.29404	80.83553	592.50867	-136.73431	54.19173	562.29486	-121.05338	65.43159	602.43134	-147.76039	51.74243	650.01459
660	5.49167	-310.16187	984.44507	428.68744	-124.16962	949.20343	348.91376	-219.90904	598.14636	300.65576	-215.33524	555.66711	305.51944	-157.02042	594.87183	316.53043	-164.01048	552.70557	318.77594	-196.96451	480.24158	322.99033	-200.72783	470.29752	430.43759	-262.14764	389.14255	304.50488	-256.84286	343.65265	297.14529	-199.86436	389.21979	311.16806	-202.51718	347.17285	305.90366	-254.17058	92.28425	333.20456	-235.39465	110.87735	416.27518	-315.25656	77.15065	383.39096	-135.01770	42.72581	312.51828	-95.07323	63.48948	367.88824	-118.51659	56.04302	407.16156	-299.76190	995.91388	559.79401	-124.30419	954.19507	612.18500	-250.89368	600.67755	650.99323	-247.52364	556.93628	653.00940	-188.36838	597.44873	642.50024	-194.67769	553.27979	647.66870	-232.52289	439.65717	631.33923	-232.71143	437.75412	542.23810	-264.68448	285.58255	624.41412	-267.30847	238.03897	624.74530	-205.57526	277.83569	612.62317	-216.31009	230.61436	618.83142	-280.81543	102.24212	638.72412	-268.04410	101.37871	555.47778	-338.32538	80.86872	592.51917	-136.69440	54.19541	562.30853	-121.04114	65.42109	602.43408	-147.75244	51.75546	650.02393
661	5.50000	-310.17853	984.43097	428.68726	-124.14712	949.21509	348.92535	-219.88525	598.14758	300.65878	-215.31335	555.66968	305.52634	-156.97655	594.89343	316.49728	-163.97539	552.70978	318.74960	-196.92311	480.24991	322.98553	-200.71896	470.26099	430.44473	-262.12863	389.14587	304.51108	-256.86276	343.66483	297.14972	-199.83118	389.23636	311.14001	-202.47820	347.18765	305.86124	-254.15511	92.28086	333.21094	-235.46309	110.86278	416.28159	-315.24936	77.16817	383.39923	-135.04724	42.71172	312.53821	-95.17384	63.38091	367.92038	-118.56408	56.00743	407.17651	-299.89166	996.00323	559.73975	-124.35249	954.18188	612.20953	-250.93446	600.66156	650.99640	-247.57915	556.93903	653.00201	-188.44559	597.41290	642.51331	-194.72108	553.27173	647.68280	-232.56888	439.64957	631.33679	-232.69511	437.73550	542.22296	-264.75275	285.57913	624.40765	-267.38593	238.03194	624.73602	-205.62737	277.81689	612.63123	-216.33939	230.59441	618.84033	-280.84100	102.24821	638.73639	-268.04001	101.37465	555.48450	-338.42169	80.90100	592.53381	-136.71321	54.17729	562.30994	-121.01538	65.44984	602.44385	-147.80455	51.74192	650.05640
662	5.50833	-310.18158	984.40436	428.68738	-124.12927	949.24774	348.92221	-219.86696	598.16949	300.67221	-215.31259	555.67651	305.51346	-156.95544	594.90295	316.46423	-163.97650	552.72040	318.71298	-196.89478	480.25909	322.96942	-200.55635	470.22906	430.41907	-262.13937	389.17407	304.52753	-256.85077	343.68207	297.15280	-199.83855	389.24057	311.09741	-202.48634	347.19705	305.82520	-254.16701	92.29019	333.20938	-235.39445	110.85797	416.27423	-315.27167	77.20728	383.42288	-134.98114	42.71121	312.55011	-95.11575	63.37585	367.92386	-118.47890	56.00870	407.17563	-299.81775	995.96979	559.74896	-124.30638	954.17188	612.19666	-250.86478	600.64697	650.98590	-247.48434	556.92932	652.99414	-188.35809	597.41315	642.50330	-194.64134	553.26367	647.66901	-232.50899	439.63577	631.34357	-232.67769	437.74396	542.22186	-264.67157	285.55923	624.41516	-267.28571	238.01711	624.75421	-205.55672	277.80835	612.63678	-216.31085	230.59312	618.83026	-280.79446	102.24094	638.73389	-268.05939	101.38779	555.48047	-338.31616	80.82840	592.52972	-136.69171	54.19368	562.30066	-121.04266	65.40982	602.43732	-147.75807	51.74015	650.04492
663	5.51667	-310.13757	984.41437	428.71011	-124.11453	949.25116	348.90649	-219.86371	598.17316	300.66330	-215.31030	555.68268	305.51685	-156.95294	594.90381	316.40863	-163.94273	552.73334	318.65762	-196.88300	480.26874	322.93164	-200.50233	470.19849	430.41644	-262.17355	389.18585	304.55203	-256.87460	343.71146	297.14853	-199.97296	389.16806	311.09668	-202.49767	347.21390	305.79236	-254.16721	92.28657	333.18976	-235.45029	110.82154	416.28073	-315.24033	77.18230	383.40836	-135.01897	42.68338	312.56775	-95.10801	63.32800	367.93204	-118.52898	55.96143	407.21533	-299.83322	995.95612	559.76709	-124.32308	954.15222	612.21594	-250.89807	600.63373	651.01086	-247.48416	556.92981	653.00391	-188.41037	597.37091	642.52222	-194.67717	553.23181	647.68457	-232.50499	439.62399	631.34113	-232.64993	437.74866	542.21448	-264.69809	285.56451	624.41052	-267.33218	238.00517	624.76569	-205.58501	277.78574	612.65430	-216.32848	230.56529	618.84741	-280.82773	102.23538	638.73285	-268.02798	101.38490	555.46234	-338.35065	80.82613	592.54816	-136.68303	54.19260	562.30762	-121.05132	65.41044	602.44183	-147.78918	51.72025	650.03821
664	5.52500	-310.14261	984.39093	428.69955	-124.09035	949.28790	348.87338	-219.92833	598.18158	300.68375	-215.34363	555.70001	305.52689	-156.96515	594.90228	316.35321	-163.94864	552.74841	318.61230	-196.89639	480.25381	322.90729	-200.47530	470.18658	430.39484	-262.20334	389.19055	304.57339	-256.91992	343.71732	297.16040	-199.87392	389.24561	311.03290	-202.51978	347.21448	305.72684	-254.18665	92.28410	333.19080	-235.48840	110.82302	416.27298	-315.22021	77.18477	383.40909	-135.03270	42.67270	312.56531	-95.11957	63.33053	367.92130	-118.55809	55.96058	407.21899	-299.84787	995.96259	559.77441	-124.35677	954.14233	612.21918	-250.89587	600.64893	650.99133	-247.50108	556.93896	652.99725	-188.43275	597.36877	642.52222	-194.70325	553.22711	647.69037	-232.51874	439.62122	631.32812	-232.62888	437.74588	542.20593	-264.74588	285.54837	624.42358	-267.36725	238.02112	624.75568	-205.63715	277.76303	612.65936	-216.35994	230.59227	618.86475	-280.86737	102.24492	638.73505	-268.03513	101.37843	555.46356	-338.39590	80.85693	592.58118	-136.69139	54.17950	562.31042	-121.03369	65.42543	602.43335	-147.82338	51.71131	650.06006
665	5.53333	-310.09824	984.36401	428.73346	-124.08459	949.29675	348.85309	-219.95041	598.18561	300.69241	-215.35052	555.70929	305.52625	-156.97383	594.92035	316.31177	-163.97191	552.75293	318.54440	-196.91664	480.26303	322.87958	-200.32788	470.20029	430.33667	-262.22562	389.22244	304.59515	-256.96432	343.72418	297.17133	-200.04460	389.17892	311.01666	-202.54787	347.23779	305.67331	-254.18614	92.27304	333.18790	-235.44031	110.85712	416.23193	-315.24222	77.19014	383.42642	-135.00055	42.67748	312.55380	-95.05110	63.33790	367.91962	-118.47288	55.98197	407.18839	-299.78040	995.92743	559.76282	-124.23312	954.16913	612.18683	-250.81412	600.67737	650.97186	-247.43805	556.94714	652.97369	-188.33546	597.39221	642.48828	-194.60497	553.25854	647.65625	-232.47560	439.63574	631.30768	-232.61763	437.74600	542.20264	-264.67990	285.57874	624.40204	-267.29648	238.01282	624.74335	-205.54761	277.81024	612.60352	-216.29039	230.60634	618.84424	-280.82782	102.25282	638.73743	-268.06235	101.37942	555.47461	-338.37189	80.86445	592.54034	-136.70651	54.15532	562.31177	-121.04495	65.42299	602.43549	-147.77325	51.73059	650.03210
